#!OML:ASF X:\für Bonn\!DataBase\2005_08_11_Bastian_Final\c3d\Bastian.ASF
:FULLY-SPECIFIED
:DEGREES
33
root -1.41634 16.3619 2.07368 170.033 -5.55357 -176.889
lowerback 20.626 -0.666869 -0.605437
upperback 6.51526 -2.13734 0.102288
thorax -4.43558 -1.5375 1.0009
lowerneck -10.4726 -5.35784 -4.24496
upperneck -3.70133 -7.40035 10.816
head 1.28057 -3.78067 3.96402
rclavicle 5.76476e-015 -5.56597e-015
rhumerus 74.6755 20.0685 14.075
rradius 38.0252
rwrist -62.4979
rhand -47.7255 -7.8248
rfingers 7.12502
rthumb -20.4047 -36.7727
lclavicle 5.76476e-015 -5.56597e-015
lhumerus 78.4393 -23.6216 -40.9296
lradius 31.3359
lwrist 32.124
lhand -43.9926 22.828
lfingers 7.12502
lthumb -16.8141 52.12
rfemur -14.2359 -4.47526 23.8299
rtibia 56.6407
rfoot -28.3331 -4.44788
rtoes -4.50473
lfemur -13.7782 3.87487 -16.21
ltibia 55.5294
lfoot -24.2599 -9.54423
ltoes -10.3661
34
root -1.40747 16.2451 2.0775 169.664 -5.57992 -176.687
lowerback 21.025 -0.694842 -0.325718
upperback 6.61695 -2.15651 0.148342
thorax -4.53712 -1.56292 0.908215
lowerneck -10.4331 -5.38993 -4.32267
upperneck -3.76601 -7.43088 10.8219
head 1.25857 -3.79794 3.98072
rclavicle -2.06736e-014 -1.19271e-015
rhumerus 74.4845 19.8549 13.5877
rradius 37.9537
rwrist -62.2981
rhand -47.7527 -7.67096
rfingers 7.12502
rthumb -20.4307 -36.6161
lclavicle -2.06736e-014 -1.19271e-015
lhumerus 78.2416 -23.4929 -40.8276
lradius 31.2906
lwrist 31.793
lhand -43.9692 23.027
lfingers 7.12502
lthumb -16.7916 52.3209
rfemur -14.7067 -4.79021 24.0024
rtibia 58.2489
rfoot -29.0647 -4.32485
rtoes -4.29361
lfemur -14.4827 3.74375 -15.9447
ltibia 57.6313
lfoot -25.1438 -9.69591
ltoes -9.81244
35
root -1.39905 16.1188 2.08087 169.316 -5.60818 -176.485
lowerback 21.421 -0.725568 -0.0393296
upperback 6.69974 -2.17203 0.197148
thorax -4.65669 -1.58505 0.814334
lowerneck -10.3876 -5.42594 -4.46681
upperneck -3.82415 -7.4611 10.8838
head 1.24393 -3.81365 4.03024
rclavicle 4.37326e-015 -2.38542e-015
rhumerus 74.2794 19.6383 13.0427
rradius 37.8716
rwrist -62.1221
rhand -47.8013 -7.50681
rfingers 7.12502
rthumb -20.4775 -36.4469
lclavicle 4.37326e-015 -2.38542e-015
lhumerus 77.9739 -23.3553 -40.4314
lradius 31.1668
lwrist 31.2297
lhand -43.8574 23.1063
lfingers 7.12502
lthumb -16.684 52.4093
rfemur -15.25 -5.1273 24.1667
rtibia 59.9507
rfoot -29.8411 -4.16466
rtoes -4.05676
lfemur -15.2203 3.5941 -15.6912
ltibia 59.7914
lfoot -26.1473 -9.80341
ltoes -9.46124
36
root -1.3907 15.9857 2.08443 169.032 -5.63432 -176.257
lowerback 21.7693 -0.766594 0.243362
upperback 6.76103 -2.19214 0.268907
thorax -4.77312 -1.60723 0.747211
lowerneck -10.3409 -5.44892 -4.59957
upperneck -3.88756 -7.47405 10.9221
head 1.2241 -3.82111 4.07047
rclavicle -3.16068e-014 -9.54166e-015
rhumerus 74.0832 19.4018 12.533
rradius 37.8165
rwrist -61.9071
rhand -47.9133 -7.33225
rfingers 7.12502
rthumb -20.5851 -36.2608
lclavicle -3.16068e-014 -9.54166e-015
lhumerus 77.6735 -23.1936 -40.0255
lradius 31.0387
lwrist 30.6471
lhand -43.6708 23.2093
lfingers 7.12502
lthumb -16.5043 52.5274
rfemur -15.9108 -5.48913 24.3646
rtibia 61.7259
rfoot -30.6199 -4.05654
rtoes -3.97564
lfemur -16.0588 3.43138 -15.4166
ltibia 62.0037
lfoot -27.2203 -9.89855
ltoes -9.19589
37
root -1.38215 15.8453 2.08802 168.763 -5.65437 -176.01
lowerback 22.1091 -0.810173 0.54889
upperback 6.81775 -2.20816 0.331509
thorax -4.89053 -1.62711 0.656311
lowerneck -10.322 -5.47244 -4.70696
upperneck -3.93825 -7.49553 11.0051
head 1.21537 -3.83303 4.12041
rclavicle -1.31198e-014 -3.97569e-015
rhumerus 73.8895 19.1359 12.0967
rradius 37.7817
rwrist -61.7465
rhand -48.0094 -7.23958
rfingers 7.12502
rthumb -20.6775 -36.1581
lclavicle -1.31198e-014 -3.97569e-015
lhumerus 77.3406 -22.9938 -39.5916
lradius 30.9344
lwrist 30.1016
lhand -43.4838 23.1971
lfingers 7.12502
lthumb -16.3243 52.53
rfemur -16.6183 -5.81736 24.5912
rtibia 63.5685
rfoot -31.3986 -3.90296
rtoes -3.59784
lfemur -16.9155 3.24837 -15.1159
ltibia 64.2451
lfoot -28.383 -10.0198
ltoes -8.71429
38
root -1.37423 15.6989 2.09142 168.507 -5.67955 -175.763
lowerback 22.4482 -0.8518 0.852502
upperback 6.8697 -2.21891 0.399001
thorax -5.01179 -1.64442 0.570701
lowerneck -10.3195 -5.49562 -4.80672
upperneck -3.98376 -7.51684 11.0731
head 1.21013 -3.84443 4.16319
rclavicle -5.76476e-015 8.74653e-015
rhumerus 73.6945 18.8449 11.7888
rradius 37.7783
rwrist -61.6462
rhand -48.1109 -7.19527
rfingers 7.12502
rthumb -20.775 -36.1031
lclavicle -5.76476e-015 8.74653e-015
lhumerus 77.0351 -22.7531 -39.2297
lradius 30.8518
lwrist 29.6288
lhand -43.3233 23.2528
lfingers 7.12502
lthumb -16.1697 52.5983
rfemur -17.3655 -6.13609 24.818
rtibia 65.4574
rfoot -32.2054 -3.77882
rtoes -3.44723
lfemur -17.801 3.09091 -14.8245
ltibia 66.5112
lfoot -29.5331 -10.1203
ltoes -8.32698
39
root -1.36672 15.5467 2.09451 168.277 -5.69569 -175.491
lowerback 22.7698 -0.898391 1.16977
upperback 6.89854 -2.22453 0.485901
thorax -5.14812 -1.6575 0.496965
lowerneck -10.2921 -5.52229 -4.95079
upperneck -4.02538 -7.5374 11.1618
head 1.20501 -3.85452 4.22273
rclavicle -2.11706e-014 -2.38542e-015
rhumerus 73.5179 18.5532 11.6037
rradius 37.8149
rwrist -61.614
rhand -48.2428 -7.16263
rfingers 7.12502
rthumb -20.9017 -36.0566
lclavicle -2.11706e-014 -2.38542e-015
lhumerus 76.7581 -22.5145 -38.9489
lradius 30.7928
lwrist 29.3473
lhand -43.2244 23.2636
lfingers 7.12502
lthumb -16.0745 52.6169
rfemur -18.1648 -6.44296 25.0847
rtibia 67.3966
rfoot -32.9798 -3.68045
rtoes -3.12328
lfemur -18.7351 2.89601 -14.5126
ltibia 68.7968
lfoot -30.5903 -10.2192
ltoes -7.92385
40
root -1.3599 15.3875 2.09738 168.039 -5.69613 -175.221
lowerback 23.102 -0.941647 1.49574
upperback 6.9364 -2.22532 0.55922
thorax -5.28006 -1.66972 0.402755
lowerneck -10.247 -5.53729 -5.05132
upperneck -4.12458 -7.5493 11.2623
head 1.17542 -3.86494 4.27979
rclavicle 1.78906e-015 -9.14409e-015
rhumerus 73.3575 18.2135 11.7087
rradius 37.9243
rwrist -61.8157
rhand -48.3799 -7.14841
rfingers 7.12502
rthumb -21.0334 -36.0278
lclavicle 1.78906e-015 -9.14409e-015
lhumerus 76.5176 -22.2253 -38.8061
lradius 30.767
lwrist 29.1707
lhand -43.1582 23.352
lfingers 7.12502
lthumb -16.0107 52.7104
rfemur -18.9779 -6.71674 25.3612
rtibia 69.3803
rfoot -33.753 -3.63126
rtoes -2.93834
lfemur -19.6653 2.73154 -14.1963
ltibia 71.102
lfoot -31.5446 -10.3756
ltoes -7.29563
41
root -1.35286 15.2211 2.10014 167.82 -5.70398 -174.948
lowerback 23.4257 -0.984439 1.79392
upperback 6.95544 -2.22418 0.650012
thorax -5.4261 -1.67983 0.343035
lowerneck -10.1978 -5.54565 -5.13034
upperneck -4.19617 -7.55244 11.325
head 1.15042 -3.8695 4.31957
rclavicle -1.66979e-014 0
rhumerus 73.2066 17.8696 11.9993
rradius 38.0972
rwrist -62.1358
rhand -48.4979 -7.15104
rfingers 7.12502
rthumb -21.1468 -36.0178
lclavicle -1.66979e-014 0
lhumerus 76.3197 -21.9379 -38.8515
lradius 30.8049
lwrist 29.2836
lhand -43.1768 23.4718
lfingers 7.12502
lthumb -16.0286 52.8288
rfemur -19.8364 -6.9627 25.6534
rtibia 71.4073
rfoot -34.525 -3.63702
rtoes -2.75677
lfemur -20.6531 2.55498 -13.8885
ltibia 73.4335
lfoot -32.4161 -10.5048
ltoes -6.72331
42
root -1.34696 15.0493 2.10301 167.624 -5.70528 -174.699
lowerback 23.7157 -1.01442 2.07945
upperback 6.98965 -2.21067 0.735099
thorax -5.53765 -1.685 0.279389
lowerneck -10.193 -5.56436 -5.2194
upperneck -4.27946 -7.57199 11.4308
head 1.1337 -3.88284 4.37485
rclavicle 7.45443e-015 -9.14409e-015
rhumerus 73.0351 17.4856 12.3947
rradius 38.2847
rwrist -62.4634
rhand -48.5546 -7.27192
rfingers 7.12502
rthumb -21.2012 -36.1325
lclavicle 7.45443e-015 -9.14409e-015
lhumerus 76.1297 -21.6085 -38.9076
lradius 30.8515
lwrist 29.5007
lhand -43.2499 23.5312
lfingers 7.12502
lthumb -16.099 52.8825
rfemur -20.7361 -7.16021 25.9319
rtibia 73.4696
rfoot -35.2839 -3.62154
rtoes -2.28208
lfemur -21.6812 2.36732 -13.6178
ltibia 75.7823
lfoot -33.2556 -10.5724
ltoes -6.42488
43
root -1.34141 14.8724 2.10534 167.407 -5.68612 -174.409
lowerback 24.0483 -1.04943 2.39937
upperback 7.01259 -2.19208 0.834937
thorax -5.68232 -1.68867 0.212821
lowerneck -10.2632 -5.5707 -5.22208
upperneck -4.28292 -7.56975 11.798
head 1.06815 -3.87484 4.06504
rclavicle -1.73937e-014 2.14687e-014
rhumerus 72.8855 17.1081 12.7969
rradius 38.4312
rwrist -62.685
rhand -48.5523 -7.48151
rfingers 7.12502
rthumb -21.199 -36.3424
lclavicle -1.73937e-014 2.14687e-014
lhumerus 75.9935 -21.2862 -39.187
lradius 30.9459
lwrist 29.9243
lhand -43.4136 23.702
lfingers 7.12502
lthumb -16.2567 53.0404
rfemur -21.6227 -7.33975 26.2732
rtibia 75.5446
rfoot -36.0095 -3.71872
rtoes -2.05737
lfemur -22.698 2.18943 -13.3038
ltibia 78.1386
lfoot -34.0384 -10.6376
ltoes -6.10847
